<svg id="Main_Layer" data-name="Main Layer" xmlns="http://www.w3.org/2000/svg" xmlns:xlink="http://www.w3.org/1999/xlink" viewBox="0 0 720 720"><defs><style>.cls-1{fill:none;}.cls-2{fill:url(#linear-gradient);}.cls-3{fill:url(#linear-gradient-2);}.cls-4{fill:url(#linear-gradient-3);}.cls-5{fill:url(#linear-gradient-4);}.cls-6{fill:url(#linear-gradient-5);}.cls-7{fill:url(#linear-gradient-6);}.cls-8{fill:url(#linear-gradient-7);}.cls-9{fill:url(#linear-gradient-8);}</style><linearGradient id="linear-gradient" x1="62.12" y1="348.3" x2="657.82" y2="348.3" gradientTransform="translate(395.63 -258.55) rotate(45)" gradientUnits="userSpaceOnUse"><stop offset="0" stop-color="#44beaa"/><stop offset="0.2" stop-color="#2ba1c3"/><stop offset="0.5" stop-color="#4582c3"/><stop offset="0.8" stop-color="#5466b0"/><stop offset="1" stop-color="#6f51a1"/></linearGradient><linearGradient id="linear-gradient-2" x1="62.12" y1="309.65" x2="657.82" y2="309.65" gradientTransform="translate(351.38 -229.02) rotate(45)" xlink:href="#linear-gradient"/><linearGradient id="linear-gradient-3" x1="62.12" y1="309.65" x2="657.82" y2="309.65" gradientTransform="matrix(1, 0, 0, 1, 0, 0)" xlink:href="#linear-gradient"/><linearGradient id="linear-gradient-4" x1="62.12" y1="411.38" x2="657.82" y2="411.38" gradientTransform="matrix(1, 0, 0, 1, 0, 0)" xlink:href="#linear-gradient"/><linearGradient id="linear-gradient-5" x1="62.12" y1="411.38" x2="657.82" y2="411.38" gradientTransform="translate(369.33 -68.87) rotate(45)" xlink:href="#linear-gradient"/><linearGradient id="linear-gradient-6" x1="62.12" y1="450.03" x2="657.82" y2="450.03" gradientTransform="translate(379.73 -16.7) rotate(45)" xlink:href="#linear-gradient"/><linearGradient id="linear-gradient-7" x1="62.12" y1="372.73" x2="657.82" y2="372.73" gradientTransform="translate(325.08 -39.34) rotate(45)" xlink:href="#linear-gradient"/><linearGradient id="linear-gradient-8" x1="62.12" y1="271" x2="657.82" y2="271" gradientTransform="translate(340.97 -281.19) rotate(45)" xlink:href="#linear-gradient"/></defs><title>Avitra Visuals</title><rect class="cls-1" width="720" height="720"/><rect class="cls-2" x="484.64" y="323.02" width="50.56" height="50.56" transform="translate(-96.93 462.58) rotate(-45)"/><rect class="cls-3" x="414.36" y="271.86" width="75.57" height="75.57" transform="translate(-86.52 410.41) rotate(-45)"/><polygon class="cls-4" points="588.21 509.08 388.78 309.65 588.21 110.22 551.87 73.87 316.09 309.65 551.87 545.42 588.21 509.08"/><polygon class="cls-5" points="168.08 647.16 403.85 411.38 168.08 175.61 131.73 211.95 331.16 411.38 131.73 610.81 168.08 647.16"/><rect class="cls-6" x="230.01" y="373.6" width="75.57" height="75.57" transform="translate(-212.46 309.85) rotate(-45)"/><rect class="cls-7" x="184.74" y="424.75" width="50.56" height="50.56" transform="translate(-256.7 280.32) rotate(-45)"/><rect class="cls-8" x="184.74" y="347.45" width="50.56" height="50.56" transform="translate(-202.05 257.68) rotate(-45)"/><rect class="cls-9" x="484.64" y="245.72" width="50.56" height="50.56" transform="translate(-42.27 439.94) rotate(-45)"/></svg>